<svg xmlns="http://www.w3.org/2000/svg" viewBox="0 0 533.5 544.3"><path fill="#4285f4" d="M533.5 278.4c0-17.4-1.6-34.1-4.6-50.4H272v95.4h146.9c-6.4 34.2-25 63.2-53.5 82.7v68.6h86.4c50.5-46.6 81.7-115.2 81.7-196.3z"/><path fill="#34a853" d="M272 544.3c72.6 0 133.6-24.1 178.1-65.5l-86.4-68.6c-24.2 16.2-55.2 25.7-91.7 25.7-70.5 0-130.3-47.6-151.7-111.6H31.9v69.8C76.2 486 167.4 544.3 272 544.3z"/><path fill="#fbbc04" d="M120.3 326.3c-10.9-32.6-10.9-67.9 0-100.5V155.9H31.9c-39.9 78.6-39.9 169.9 0 248.5l88.4-77.9z"/><path fill="#ea4335" d="M272 107.7c39.5 0 75 13.6 103 40.3l77.1-77.1C405.6 24.1 344.6 0 272 0 167.4 0 76.2 58.3 31.9 155.9l88.4 69.3C141.7 155.3 201.5 107.7 272 107.7z"/></svg>
